<svg width="2023" height="1819" viewBox="0 0 2023 1819" fill="none" xmlns="http://www.w3.org/2000/svg">
<path d="M1401.73 1270.19C1476.38 1262.87 1533.02 1201.93 1530.44 1128.79C1527.87 1055.66 1463.51 997.146 1386.28 997.146H1381.13C1301.32 999.586 1239.54 1062.97 1242.11 1138.54C1244.69 1175.11 1260.13 1206.8 1283.3 1228.74C1195.77 1392.08 1061.91 1511.53 861.11 1611.48C724.669 1679.74 583.082 1704.12 441.496 1687.06C325.648 1672.43 235.545 1623.68 178.901 1543.22C96.527 1423.77 88.8065 1294.56 158.315 1165.36C207.231 1072.72 284.453 1004.46 333.368 970.327C323.071 938.637 307.622 885.006 299.902 846.004C-73.3812 1101.98 -34.7625 1448.15 78.5097 1611.48C163.46 1733.38 335.944 1808.95 526.446 1808.95C577.93 1808.95 629.414 1804.07 680.905 1791.89C1010.43 1730.94 1260.14 1545.66 1401.73 1270.19ZM1854.81 967.895C1659.16 750.925 1370.84 631.474 1041.32 631.474H1000.13C976.959 587.593 928.043 558.335 873.983 558.335H868.831C789.033 560.774 727.253 624.155 729.821 699.734C732.397 772.865 796.754 831.375 873.983 831.375H879.128C935.764 828.936 984.679 794.806 1005.27 748.486H1051.61C1247.27 748.486 1432.62 802.117 1599.96 906.946C1728.67 987.396 1821.35 1092.23 1872.83 1218.99C1916.59 1321.38 1914.02 1421.33 1867.68 1506.66C1795.6 1635.86 1674.61 1706.56 1515 1706.56C1412.02 1706.56 1314.2 1677.3 1262.71 1655.36C1234.39 1679.74 1182.9 1718.74 1146.86 1743.13C1257.56 1791.88 1370.84 1818.7 1478.96 1818.7C1726.09 1818.7 1908.87 1689.49 1978.38 1560.29C2053.04 1418.89 2047.88 1175.11 1854.81 967.895ZM547.04 1311.62C549.616 1384.76 613.972 1443.26 691.202 1443.26H696.354C776.16 1440.83 837.941 1377.44 835.365 1301.87C832.796 1228.73 768.432 1170.23 691.202 1170.23H686.058C680.905 1170.23 673.177 1170.23 668.04 1172.66C562.489 1006.89 518.726 826.496 534.175 631.466C544.463 485.196 595.955 358.426 686.058 253.596C760.711 163.396 904.874 119.516 1002.7 117.084C1275.58 112.205 1391.42 433.997 1399.15 563.206C1432.62 570.517 1489.25 587.586 1527.87 599.776C1496.97 204.852 1239.54 0.0717773 992.408 0.0717773C760.711 0.0717773 547.04 158.532 462.082 392.564C343.665 704.605 420.894 1004.46 565.057 1240.93C552.192 1257.99 544.463 1284.8 547.04 1311.62Z" fill="#764ABC"/>
</svg>
